<?xml version="1.0" encoding="UTF-8"?>
<svg id="Camada_2" data-name="Camada 2" xmlns="http://www.w3.org/2000/svg" viewBox="0 0 244.3 185.88">
  <defs>
    <style>
      .cls-1 {
        fill: #bea56c;
      }
    </style>
  </defs>
  <g id="Camada_1-2" data-name="Camada 1">
    <g>
      <path class="cls-1" d="M169.9,28.15c.08.06.22.23.31.31.02,0,.04,0,.06,0,5.63-4.52,15.02-10.73,15.93-18.55.51-4.39-1.65-8.51-6.11-9.54-3.17-.73-6.23.18-8.39,2.62-.29.33-1.34,1.78-1.42,2.13h-.06c-1.05-2.15-3.15-4.02-5.49-4.63-3.82-1.73-8.82,1.26-10,5.09-2.94,9.55,8.92,17.54,15.18,22.56Z"/>
      <path class="cls-1" d="M212.71,0v2.12c11.42,11.95,10.09,24.96,1.59,48.86l-38.77,109.4-47.27-122.68c-7.44-19.38-9.56-28.68-2.92-35.58V0H0v2.12c3.98,2.39,5.84,6.37,5.84,15.67v150.56c0,9.29-1.86,13.28-5.84,15.67v1.86h107.81l5.84-32.13-1.59-1.06c-12.48,16.2-34.52,31.33-63.73,31.33h-21.51v-101.44l66.92,5.58v-13.54l-66.92,5.84V2.12h18.59c28.63,0,44.98,13.78,57.09,27.23,3.48,6.61,6.79,13.83,9.83,21.63,7.97,20.71,52.05,134.9,52.05,134.9h20.98l-8.76-22.84,39.83-112.06c8.76-24.7,16.46-36.91,27.88-48.86V0h-31.6Z"/>
    </g>
  </g>
</svg>