<?xml version="1.0" encoding="UTF-8"?>
<svg id="Camada_2" data-name="Camada 2" xmlns="http://www.w3.org/2000/svg" viewBox="0 0 606.26 280.41">
  <defs>
    <style>
      .cls-1 {
        fill: #bea56c;
      }
    </style>
  </defs>
  <g id="Camada_1-2" data-name="Camada 1">
    <g>
      <g>
        <path class="cls-1" d="M79.17,103.71l-3.8,20.92H5.19v-1.21c2.59-1.56,3.8-4.15,3.8-10.2V15.21c0-6.05-1.21-8.64-3.8-10.2v-1.38h64.65l3.63,19.19-.86.69c-7.95-8.99-18.67-18.5-37.85-18.5h-12.1v50.99l43.56-3.8v8.82l-43.56-3.63v66.03h14c19.01,0,33.36-9.85,41.48-20.4l1.04.69Z"/>
        <path class="cls-1" d="M112.53,123.42v1.21h-21.26v-1.21c2.59-1.56,3.8-4.15,3.8-10.2V13.31c0-6.05-.52-7.78-3.8-8.3v-1.38l16.25-3.63h1.21v113.22c0,6.05,1.21,8.64,3.8,10.2Z"/>
        <path class="cls-1" d="M214.68,79.86c0,27.66-23.68,45.81-46.84,45.81s-43.21-14.17-43.21-38.37c0-28.52,23.68-45.81,46.84-45.81s43.21,14.52,43.21,38.37ZM200.16,74.33c-6.05-20.74-22.3-35.43-42-29.73s-25.06,27.31-19.01,48.23c6.05,20.74,22.3,35.61,42,29.73,19.71-5.7,25.06-27.31,19.01-48.23Z"/>
        <path class="cls-1" d="M244.76,123.42v1.21h-21.43v-1.21c2.59-1.56,3.8-4.15,3.8-10.2v-58.42c0-6.05-.52-7.78-3.8-8.3v-1.21l16.25-3.8h1.21v71.73c0,6.05,1.21,8.64,3.98,10.2ZM225.4,19.36c0-4.49,3.63-8.12,8.12-8.12s8.12,3.63,8.12,8.12-3.63,8.12-8.12,8.12-8.12-3.63-8.12-8.12Z"/>
        <path class="cls-1" d="M327.9,103.71l-3.8,20.92h-68.97l55.31-81.93h-15.73c-19.19,0-28.17,9.51-35.95,18.5l-1.04-.69,5.7-19.01h62.23l-55.31,81.93h20.57c20.22-.17,27.83-9.85,35.95-20.4l1.04.69Z"/>
        <path class="cls-1" d="M397.74,74.84s-13.83,34.4-20.05,49.78c-6.22,15.56-14,28.52-27.66,28.52-9.33,0-16.08-4.32-20.4-12.27l13.48-12.27,1.04.86c-1.73,9.68.17,22.99,9.68,21.95,8.99-1.04,16.08-12.45,21.78-25.24l-22.12-52.03c-7.26-16.94-10.89-24.37-19.19-31.29v-1.38h26.45v1.38c-4.32,4.67-2.94,9.33,1.04,19.01l20.57,48.05,14.17-35.26c6.4-15.9,8.47-25.41.69-31.8v-1.38h20.4v1.38c-7.43,7.61-13.48,16.08-19.88,31.98Z"/>
      </g>
      <g>
        <path class="cls-1" d="M85.73,191.48l-25.93,72.94,5.7,14.87h-13.66s-28.69-74.33-33.88-87.81c-5.19-13.31-11.58-24.03-17.98-31.8v-1.38h26.45v1.38c-4.32,4.49-2.94,10.54,1.9,23.16l30.77,79.86,25.24-71.21c5.53-15.56,6.4-24.03-1.04-31.8v-1.38h20.57v1.38c-7.43,7.78-12.45,15.73-18.15,31.8Z"/>
        <path class="cls-1" d="M133.96,278.08v1.21h-21.43v-1.21c2.59-1.56,3.8-4.15,3.8-10.2v-58.42c0-6.05-.52-7.78-3.8-8.3v-1.21l16.25-3.8h1.21v71.73c0,6.05,1.21,8.64,3.98,10.2ZM114.6,174.03c0-4.49,3.63-8.12,8.12-8.12s8.12,3.63,8.12,8.12-3.63,8.12-8.12,8.12-8.12-3.63-8.12-8.12Z"/>
        <path class="cls-1" d="M231.45,278.08v1.21h-21.43v-1.21c2.77-1.56,3.46-4.49,2.94-10.2s-3.11-34.92-3.98-43.9c-1.21-12.96-7.61-27.66-22.47-24.72-19.36,3.8-22.99,39.93-22.99,54.45v14.17c0,6.05,1.21,8.64,3.98,10.2v1.21h-21.43v-1.21c2.59-1.56,3.8-4.15,3.8-10.2v-58.42c0-6.05-.52-7.78-3.8-8.3v-1.21l16.25-3.8h1.21v42.87c2.25-19.36,8.12-42.87,30.59-42.87,14.17,0,26.27,9.68,28.35,30.42,1.73,16.77,3.46,34.92,4.15,41.31.69,6.22,2.25,8.64,4.84,10.2Z"/>
        <path class="cls-1" d="M261.53,278.08v1.21h-21.43v-1.21c2.59-1.56,3.8-4.15,3.8-10.2v-58.42c0-6.05-.52-7.78-3.8-8.3v-1.21l16.25-3.8h1.21v71.73c0,6.05,1.21,8.64,3.98,10.2ZM242.17,174.03c0-4.49,3.63-8.12,8.12-8.12s8.12,3.63,8.12,8.12-3.63,8.12-8.12,8.12-8.12-3.63-8.12-8.12Z"/>
        <path class="cls-1" d="M328.07,277.22c17.11-1.73,26.45-16.94,29.21-21.78l1.04.52c-5.36,9.68-15.56,23.16-36.13,24.37-23.85,1.21-47.71-11.75-48.4-40.27-.86-29.9,26.27-43.9,45.29-43.9,9.85,0,23.68,4.49,32.67,9.16l-2.59,14.35h-1.04c-4.15-10.37-20.57-25.24-36.82-21.43-21.26,4.84-29.04,32.15-21.78,52.89,6.4,18.15,21.09,27.83,38.55,26.1Z"/>
        <path class="cls-1" d="M388.4,278.08v1.21h-21.43v-1.21c2.59-1.56,3.8-4.15,3.8-10.2v-58.42c0-6.05-.52-7.78-3.8-8.3v-1.21l16.25-3.8h1.21v71.73c0,6.05,1.21,8.64,3.98,10.2ZM369.04,174.03c0-4.49,3.63-8.12,8.12-8.12s8.12,3.63,8.12,8.12-3.63,8.12-8.12,8.12-8.12-3.63-8.12-8.12Z"/>
        <path class="cls-1" d="M481.05,279.29h-17.63v-42c-2.25,19.53-8.12,43.04-30.59,43.04-15.9,0-28.52-10.03-28.52-30.42v-40.45c0-6.05-.52-7.78-3.8-8.3v-1.21l16.25-3.8h1.21v56.35c0,15.04,7.78,27.48,22.64,24.72,19.36-3.8,22.82-39.93,22.82-54.45v-13.31c0-6.05-.52-7.78-3.8-8.3v-1.21l16.25-3.8h1.21v71.73c0,6.05,1.21,8.64,3.98,10.2v1.21Z"/>
        <path class="cls-1" d="M554.17,207.21l-3.46,15.9h-.86c-5.36-14.69-16.42-25.41-26.27-25.41-11.75,0-18.32,6.57-19.19,13.66-2.42,23.16,55.83,16.94,53.93,45.11-1.04,13.66-13.83,23.85-33.19,23.85-14,0-24.37-4.67-33.71-11.58l3.63-17.29h.86c5.88,12.1,18.84,26.45,34.22,26.45,12.45,0,21.78-6.4,22.82-13.83,3.28-22.64-57.04-12.62-52.89-46.5,1.38-11.24,7.61-21.43,26.45-21.43,8.99,0,20.74,5.7,27.66,11.06Z"/>
      </g>
      <path class="cls-1" d="M606.26,164.69c-25.63,22.1-55.87,10.88-76.54-4.78-3.6-2.8-10.26-8.15-17.87-14.47-7.48,4.89-16.02,8.2-25.35,9.35-27.44,3.3-57.44-10.56-58.35-36.62-.57-16.4,8.23-26.88,18.92-32.54-4.41-6.69-6.82-13.35-7.07-20.72-.62-17.32,11.15-29.69,31.83-29.52,12.97.16,22.88,5.11,28.67,11.68l-2.21,18.67h-1.65c-.62-15.84-10.51-25.41-23.83-25.48-13.41.07-21.97,9.8-21.48,23.47.46,13.88,10.24,24.43,27.58,39.44,3.45,2.99,22.79,19.58,37.9,32.25,28.98-26.61,37.13-82.74-18.05-111.45l.79-.99c57.2,23.34,53.33,85.58,21.04,115.6l10.5,8.63c20.19,16.16,45.26,30.18,74.46,16l.71,1.48ZM486.31,149.84c7.67-.78,15-3.48,21.63-7.64-14.14-11.78-30.25-25.49-36.33-30.78-9.16-7.97-16.46-14.99-21.74-21.85-7.78,7.36-10.08,17.41-9.78,26.13.7,20.12,21.71,36.62,46.22,34.14h0Z"/>
    </g>
  </g>
</svg>